<mxfile host="65bd71144e">
    <diagram id="J45dyjlVQJOKcfwHs_WF" name="Page-1">
        <mxGraphModel dx="5199" dy="3820" grid="1" gridSize="10" guides="1" tooltips="1" connect="1" arrows="1" fold="1" page="1" pageScale="1" pageWidth="850" pageHeight="1100" math="0" shadow="0">
            <root>
                <mxCell id="0"/>
                <mxCell id="1" parent="0"/>
                <mxCell id="36" value="" style="group" parent="1" vertex="1" connectable="0">
                    <mxGeometry x="-590" y="-853" width="790" height="900" as="geometry"/>
                </mxCell>
                <mxCell id="33" value="&lt;b&gt;&lt;font color=&quot;#ff3333&quot; style=&quot;font-size: 24px;&quot;&gt;FindMainRow&lt;/font&gt;&lt;/b&gt;" style="rounded=1;whiteSpace=wrap;html=1;absoluteArcSize=1;arcSize=14;strokeWidth=2;fontSize=18;labelPosition=center;verticalLabelPosition=top;align=center;verticalAlign=bottom;movable=1;resizable=1;rotatable=1;deletable=1;editable=1;connectable=1;" parent="36" vertex="1">
                    <mxGeometry width="790" height="860" as="geometry"/>
                </mxCell>
                <mxCell id="14" value="start" style="strokeWidth=2;html=1;shape=mxgraph.flowchart.terminator;whiteSpace=wrap;fontSize=24;movable=1;resizable=1;rotatable=1;deletable=1;editable=1;connectable=1;" parent="36" vertex="1">
                    <mxGeometry x="115.60975609756096" y="30" width="127.65243902439023" height="60" as="geometry"/>
                </mxCell>
                <mxCell id="15" value="&lt;span style=&quot;font-size: 24px;&quot;&gt;A, i&lt;/span&gt;" style="shape=parallelogram;html=1;strokeWidth=2;perimeter=parallelogramPerimeter;whiteSpace=wrap;rounded=1;arcSize=12;size=0.23;fontSize=18;movable=1;resizable=1;rotatable=1;deletable=1;editable=1;connectable=1;" parent="36" vertex="1">
                    <mxGeometry x="86.70731707317073" y="140" width="173.41463414634146" height="60" as="geometry"/>
                </mxCell>
                <mxCell id="17" style="edgeStyle=none;html=1;entryX=0.54;entryY=-0.036;entryDx=0;entryDy=0;entryPerimeter=0;fontSize=18;movable=1;resizable=1;rotatable=1;deletable=1;editable=1;connectable=1;" parent="36" source="14" target="15" edge="1">
                    <mxGeometry relative="1" as="geometry"/>
                </mxCell>
                <mxCell id="18" value="max = i" style="rounded=1;whiteSpace=wrap;html=1;absoluteArcSize=1;arcSize=14;strokeWidth=2;fontSize=18;movable=1;resizable=1;rotatable=1;deletable=1;editable=1;connectable=1;" parent="36" vertex="1">
                    <mxGeometry x="86.70731707317073" y="260" width="173.41463414634146" height="100" as="geometry"/>
                </mxCell>
                <mxCell id="19" style="edgeStyle=none;html=1;entryX=0.5;entryY=0;entryDx=0;entryDy=0;fontSize=18;movable=1;resizable=1;rotatable=1;deletable=1;editable=1;connectable=1;" parent="36" source="15" target="18" edge="1">
                    <mxGeometry relative="1" as="geometry"/>
                </mxCell>
                <mxCell id="21" value="&lt;font size=&quot;3&quot;&gt;Loop j on rows&lt;br&gt;from i to n-1&lt;br&gt;&lt;/font&gt;" style="strokeWidth=2;html=1;shape=mxgraph.flowchart.loop_limit;whiteSpace=wrap;movable=1;resizable=1;rotatable=1;deletable=1;editable=1;connectable=1;" parent="36" vertex="1">
                    <mxGeometry x="308.2926829268293" y="260" width="183.04878048780486" height="100" as="geometry"/>
                </mxCell>
                <mxCell id="22" style="edgeStyle=none;html=1;entryX=0;entryY=0.5;entryDx=0;entryDy=0;entryPerimeter=0;fontSize=18;movable=1;resizable=1;rotatable=1;deletable=1;editable=1;connectable=1;" parent="36" source="18" target="21" edge="1">
                    <mxGeometry relative="1" as="geometry"/>
                </mxCell>
                <mxCell id="23" value="max = j" style="rounded=1;whiteSpace=wrap;html=1;absoluteArcSize=1;arcSize=14;strokeWidth=2;fontSize=18;movable=1;resizable=1;rotatable=1;deletable=1;editable=1;connectable=1;" parent="36" vertex="1">
                    <mxGeometry x="549.1463414634146" y="430" width="183.04878048780486" height="100" as="geometry"/>
                </mxCell>
                <mxCell id="26" value="Yes" style="edgeStyle=none;html=1;entryX=0;entryY=0.5;entryDx=0;entryDy=0;fontSize=18;movable=1;resizable=1;rotatable=1;deletable=1;editable=1;connectable=1;" parent="36" source="24" target="23" edge="1">
                    <mxGeometry relative="1" as="geometry">
                        <Array as="points">
                            <mxPoint x="510.60975609756093" y="480"/>
                        </Array>
                    </mxGeometry>
                </mxCell>
                <mxCell id="24" value="A&lt;sub&gt;ji &lt;/sub&gt;&amp;nbsp;&amp;gt; A&lt;sub&gt;max,i&lt;/sub&gt;" style="strokeWidth=2;html=1;shape=mxgraph.flowchart.decision;whiteSpace=wrap;fontSize=18;movable=1;resizable=1;rotatable=1;deletable=1;editable=1;connectable=1;" parent="36" vertex="1">
                    <mxGeometry x="325.1524390243902" y="410" width="149.3292682926829" height="140" as="geometry"/>
                </mxCell>
                <mxCell id="25" style="edgeStyle=none;html=1;entryX=0.5;entryY=0;entryDx=0;entryDy=0;entryPerimeter=0;fontSize=18;movable=1;resizable=1;rotatable=1;deletable=1;editable=1;connectable=1;" parent="36" source="21" target="24" edge="1">
                    <mxGeometry relative="1" as="geometry"/>
                </mxCell>
                <mxCell id="28" value="No" style="edgeStyle=none;html=1;fontSize=18;movable=1;resizable=1;rotatable=1;deletable=1;editable=1;connectable=1;entryX=0;entryY=0.5;entryDx=0;entryDy=0;entryPerimeter=0;" parent="36" source="24" target="21" edge="1">
                    <mxGeometry relative="1" as="geometry">
                        <mxPoint x="264.93902439024384" y="480" as="targetPoint"/>
                        <Array as="points">
                            <mxPoint x="279.390243902439" y="480"/>
                            <mxPoint x="279.390243902439" y="310"/>
                        </Array>
                    </mxGeometry>
                </mxCell>
                <mxCell id="29" value="&lt;font size=&quot;3&quot;&gt;Loop j on rows end&lt;br&gt;&lt;/font&gt;" style="strokeWidth=2;html=1;shape=mxgraph.flowchart.loop_limit;whiteSpace=wrap;direction=west;movable=1;resizable=1;rotatable=1;deletable=1;editable=1;connectable=1;" parent="36" vertex="1">
                    <mxGeometry x="308.2926829268293" y="600" width="183.04878048780486" height="90" as="geometry"/>
                </mxCell>
                <mxCell id="30" style="edgeStyle=none;html=1;entryX=0.5;entryY=1;entryDx=0;entryDy=0;entryPerimeter=0;fontSize=18;movable=1;resizable=1;rotatable=1;deletable=1;editable=1;connectable=1;" parent="36" source="24" target="29" edge="1">
                    <mxGeometry relative="1" as="geometry"/>
                </mxCell>
                <mxCell id="31" value="return max" style="strokeWidth=2;html=1;shape=mxgraph.flowchart.terminator;whiteSpace=wrap;fontSize=24;movable=1;resizable=1;rotatable=1;deletable=1;editable=1;connectable=1;" parent="36" vertex="1">
                    <mxGeometry x="312.5028048780488" y="740" width="174.6189024390244" height="80" as="geometry"/>
                </mxCell>
                <mxCell id="32" style="edgeStyle=none;html=1;fontSize=18;entryX=0.5;entryY=0;entryDx=0;entryDy=0;entryPerimeter=0;movable=1;resizable=1;rotatable=1;deletable=1;editable=1;connectable=1;" parent="36" source="29" target="31" edge="1">
                    <mxGeometry relative="1" as="geometry">
                        <mxPoint x="399.8170731707317" y="770" as="targetPoint"/>
                    </mxGeometry>
                </mxCell>
                <mxCell id="75" value="" style="group" parent="1" vertex="1" connectable="0">
                    <mxGeometry x="1400" y="-503" width="410" height="510" as="geometry"/>
                </mxCell>
                <mxCell id="73" value="&lt;b&gt;&lt;font color=&quot;#ff3333&quot; style=&quot;font-size: 24px;&quot;&gt;PermuteRows&lt;/font&gt;&lt;/b&gt;" style="rounded=1;whiteSpace=wrap;html=1;absoluteArcSize=1;arcSize=14;strokeWidth=2;fontSize=18;labelPosition=center;verticalLabelPosition=top;align=center;verticalAlign=bottom;" parent="75" vertex="1">
                    <mxGeometry y="-10" width="410" height="520" as="geometry"/>
                </mxCell>
                <mxCell id="38" value="Start" style="strokeWidth=2;html=1;shape=mxgraph.flowchart.terminator;whiteSpace=wrap;fontSize=18;" parent="75" vertex="1">
                    <mxGeometry x="115" y="20" width="180" height="80" as="geometry"/>
                </mxCell>
                <mxCell id="39" value="&lt;span style=&quot;font-size: 24px;&quot;&gt;A, curr_i, max_i&lt;/span&gt;" style="shape=parallelogram;html=1;strokeWidth=2;perimeter=parallelogramPerimeter;whiteSpace=wrap;rounded=1;arcSize=12;size=0.23;fontSize=18;" parent="75" vertex="1">
                    <mxGeometry x="57.5" y="140" width="295" height="60" as="geometry"/>
                </mxCell>
                <mxCell id="61" style="edgeStyle=none;html=1;entryX=0.5;entryY=0;entryDx=0;entryDy=0;fontSize=18;" parent="75" source="38" target="39" edge="1">
                    <mxGeometry relative="1" as="geometry"/>
                </mxCell>
                <mxCell id="59" value="row_A = A&lt;sub&gt;max_i&lt;/sub&gt;&lt;br&gt;A&lt;sub&gt;max_i &lt;/sub&gt;= A&lt;sub&gt;curr_i&lt;/sub&gt;&lt;br&gt;A&lt;sub&gt;curr_i&lt;/sub&gt;&amp;nbsp;= row_A" style="rounded=1;whiteSpace=wrap;html=1;absoluteArcSize=1;arcSize=14;strokeWidth=2;fontSize=18;" parent="75" vertex="1">
                    <mxGeometry x="87.5" y="250" width="220" height="100" as="geometry"/>
                </mxCell>
                <mxCell id="60" style="edgeStyle=none;html=1;entryX=0.533;entryY=-0.005;entryDx=0;entryDy=0;fontSize=18;entryPerimeter=0;" parent="75" source="39" target="59" edge="1">
                    <mxGeometry relative="1" as="geometry"/>
                </mxCell>
                <mxCell id="70" value="return A" style="strokeWidth=2;html=1;shape=mxgraph.flowchart.terminator;whiteSpace=wrap;fontSize=18;" parent="75" vertex="1">
                    <mxGeometry x="107.5" y="410" width="180" height="80" as="geometry"/>
                </mxCell>
                <mxCell id="72" style="edgeStyle=none;html=1;entryX=0.5;entryY=0;entryDx=0;entryDy=0;entryPerimeter=0;fontSize=18;" parent="75" source="59" target="70" edge="1">
                    <mxGeometry relative="1" as="geometry"/>
                </mxCell>
                <mxCell id="93" value="" style="group" parent="1" vertex="1" connectable="0">
                    <mxGeometry x="672.19" y="-515" width="670" height="520" as="geometry"/>
                </mxCell>
                <mxCell id="92" value="&lt;b&gt;&lt;font color=&quot;#ff3333&quot; style=&quot;font-size: 24px;&quot;&gt;NormalizeRow&lt;/font&gt;&lt;/b&gt;" style="rounded=1;whiteSpace=wrap;html=1;absoluteArcSize=1;arcSize=14;strokeWidth=2;fontSize=18;labelPosition=center;verticalLabelPosition=top;align=center;verticalAlign=bottom;" parent="93" vertex="1">
                    <mxGeometry width="670" height="520" as="geometry"/>
                </mxCell>
                <mxCell id="77" value="Start" style="strokeWidth=2;html=1;shape=mxgraph.flowchart.terminator;whiteSpace=wrap;fontSize=18;" parent="93" vertex="1">
                    <mxGeometry x="435" y="20" width="160" height="70" as="geometry"/>
                </mxCell>
                <mxCell id="78" value="row_a, start_i, n" style="shape=parallelogram;html=1;strokeWidth=2;perimeter=parallelogramPerimeter;whiteSpace=wrap;rounded=1;arcSize=12;size=0.23;fontSize=18;" parent="93" vertex="1">
                    <mxGeometry x="405" y="130" width="220" height="60" as="geometry"/>
                </mxCell>
                <mxCell id="79" style="edgeStyle=none;html=1;entryX=0.5;entryY=0;entryDx=0;entryDy=0;fontSize=18;" parent="93" source="77" target="78" edge="1">
                    <mxGeometry relative="1" as="geometry"/>
                </mxCell>
                <mxCell id="81" value="c = 1/row_a&lt;sub&gt;start_i&lt;/sub&gt;" style="rounded=1;whiteSpace=wrap;html=1;absoluteArcSize=1;arcSize=14;strokeWidth=2;fontSize=18;" parent="93" vertex="1">
                    <mxGeometry x="370" y="230" width="265" height="100" as="geometry"/>
                </mxCell>
                <mxCell id="82" style="edgeStyle=none;html=1;entryX=0.552;entryY=0.012;entryDx=0;entryDy=0;entryPerimeter=0;fontSize=18;" parent="93" source="78" target="81" edge="1">
                    <mxGeometry relative="1" as="geometry"/>
                </mxCell>
                <mxCell id="83" value="Loop i&lt;br&gt;from start_i+1, n-1" style="strokeWidth=2;html=1;shape=mxgraph.flowchart.loop_limit;whiteSpace=wrap;fontSize=18;" parent="93" vertex="1">
                    <mxGeometry x="40" y="130" width="250" height="100" as="geometry"/>
                </mxCell>
                <mxCell id="89" style="edgeStyle=none;html=1;entryX=1.012;entryY=0.645;entryDx=0;entryDy=0;entryPerimeter=0;fontSize=18;" parent="93" source="81" target="83" edge="1">
                    <mxGeometry relative="1" as="geometry">
                        <Array as="points">
                            <mxPoint x="330" y="280"/>
                            <mxPoint x="330" y="195"/>
                        </Array>
                    </mxGeometry>
                </mxCell>
                <mxCell id="85" value="row_a *= c&amp;nbsp;" style="rounded=1;whiteSpace=wrap;html=1;absoluteArcSize=1;arcSize=14;strokeWidth=2;fontSize=18;" parent="93" vertex="1">
                    <mxGeometry x="40" y="260" width="250" height="100" as="geometry"/>
                </mxCell>
                <mxCell id="86" style="edgeStyle=none;html=1;entryX=0.5;entryY=0;entryDx=0;entryDy=0;fontSize=18;" parent="93" source="83" target="85" edge="1">
                    <mxGeometry relative="1" as="geometry"/>
                </mxCell>
                <mxCell id="87" value="Loop i&lt;br&gt;from start_i, n-1" style="strokeWidth=2;html=1;shape=mxgraph.flowchart.loop_limit;whiteSpace=wrap;fontSize=18;direction=west;" parent="93" vertex="1">
                    <mxGeometry x="40" y="390" width="250" height="100" as="geometry"/>
                </mxCell>
                <mxCell id="88" style="edgeStyle=none;html=1;fontSize=18;" parent="93" source="85" target="87" edge="1">
                    <mxGeometry relative="1" as="geometry"/>
                </mxCell>
                <mxCell id="90" value="return row_a" style="strokeWidth=2;html=1;shape=mxgraph.flowchart.terminator;whiteSpace=wrap;fontSize=18;" parent="93" vertex="1">
                    <mxGeometry x="420" y="410" width="155" height="60" as="geometry"/>
                </mxCell>
                <mxCell id="91" style="edgeStyle=none;html=1;entryX=0;entryY=0.5;entryDx=0;entryDy=0;entryPerimeter=0;fontSize=18;" parent="93" source="87" target="90" edge="1">
                    <mxGeometry relative="1" as="geometry"/>
                </mxCell>
                <mxCell id="126" value="" style="group" parent="1" vertex="1" connectable="0">
                    <mxGeometry x="240" y="-1010" width="390" height="1015" as="geometry"/>
                </mxCell>
                <mxCell id="113" value="&lt;font color=&quot;#ff3333&quot; style=&quot;font-size: 24px;&quot;&gt;&lt;b&gt;ExcludeColumn&lt;/b&gt;&lt;/font&gt;" style="rounded=1;whiteSpace=wrap;html=1;absoluteArcSize=1;arcSize=14;strokeWidth=2;fontSize=18;labelPosition=center;verticalLabelPosition=top;align=center;verticalAlign=bottom;" parent="126" vertex="1">
                    <mxGeometry width="390" height="1015" as="geometry"/>
                </mxCell>
                <mxCell id="96" value="Start" style="strokeWidth=2;html=1;shape=mxgraph.flowchart.terminator;whiteSpace=wrap;fontSize=18;" parent="126" vertex="1">
                    <mxGeometry x="120" y="15" width="160" height="70" as="geometry"/>
                </mxCell>
                <mxCell id="97" value="A, norm_row, curr_i" style="shape=parallelogram;html=1;strokeWidth=2;perimeter=parallelogramPerimeter;whiteSpace=wrap;rounded=1;arcSize=12;size=0.23;fontSize=18;" parent="126" vertex="1">
                    <mxGeometry x="65" y="125" width="270" height="60" as="geometry"/>
                </mxCell>
                <mxCell id="98" style="edgeStyle=none;html=1;fontSize=18;entryX=0.5;entryY=0;entryDx=0;entryDy=0;" parent="126" source="96" target="97" edge="1">
                    <mxGeometry relative="1" as="geometry">
                        <mxPoint x="194" y="125" as="targetPoint"/>
                    </mxGeometry>
                </mxCell>
                <mxCell id="99" value="Loop i&lt;br&gt;from curr_i+1 to n-1" style="strokeWidth=2;html=1;shape=mxgraph.flowchart.loop_limit;whiteSpace=wrap;fontSize=18;" parent="126" vertex="1">
                    <mxGeometry x="100" y="215" width="200" height="100" as="geometry"/>
                </mxCell>
                <mxCell id="108" style="edgeStyle=none;html=1;entryX=0.5;entryY=0;entryDx=0;entryDy=0;entryPerimeter=0;fontSize=18;" parent="126" source="97" target="99" edge="1">
                    <mxGeometry relative="1" as="geometry"/>
                </mxCell>
                <mxCell id="100" value="Loop i end" style="strokeWidth=2;html=1;shape=mxgraph.flowchart.loop_limit;whiteSpace=wrap;fontSize=18;direction=west;" parent="126" vertex="1">
                    <mxGeometry x="100" y="807" width="200" height="100" as="geometry"/>
                </mxCell>
                <mxCell id="102" value="Loop j&lt;br&gt;from curr_i+1 to n" style="strokeWidth=2;html=1;shape=mxgraph.flowchart.loop_limit;whiteSpace=wrap;fontSize=18;" parent="126" vertex="1">
                    <mxGeometry x="70" y="345" width="260" height="100" as="geometry"/>
                </mxCell>
                <mxCell id="109" style="edgeStyle=none;html=1;entryX=0.5;entryY=0;entryDx=0;entryDy=0;entryPerimeter=0;fontSize=18;" parent="126" source="99" target="102" edge="1">
                    <mxGeometry relative="1" as="geometry"/>
                </mxCell>
                <mxCell id="103" value="Loop j end" style="strokeWidth=2;html=1;shape=mxgraph.flowchart.loop_limit;whiteSpace=wrap;fontSize=18;direction=west;" parent="126" vertex="1">
                    <mxGeometry x="70" y="627" width="260" height="75" as="geometry"/>
                </mxCell>
                <mxCell id="106" style="edgeStyle=none;html=1;entryX=0.5;entryY=1;entryDx=0;entryDy=0;entryPerimeter=0;fontSize=18;" parent="126" source="104" target="103" edge="1">
                    <mxGeometry relative="1" as="geometry"/>
                </mxCell>
                <mxCell id="104" value="A&lt;sub&gt;ij&lt;/sub&gt;&amp;nbsp;+= A&lt;sub&gt;i,curr_i&amp;nbsp;&lt;/sub&gt;* (-norm_row&lt;sub&gt;j&lt;/sub&gt;)" style="rounded=1;whiteSpace=wrap;html=1;absoluteArcSize=1;arcSize=14;strokeWidth=2;fontSize=18;" parent="126" vertex="1">
                    <mxGeometry x="45" y="485" width="310" height="120" as="geometry"/>
                </mxCell>
                <mxCell id="105" style="edgeStyle=none;html=1;entryX=0.5;entryY=0;entryDx=0;entryDy=0;fontSize=18;" parent="126" source="102" target="104" edge="1">
                    <mxGeometry relative="1" as="geometry"/>
                </mxCell>
                <mxCell id="112" value="return A" style="strokeWidth=2;html=1;shape=mxgraph.flowchart.terminator;whiteSpace=wrap;fontSize=18;" parent="126" vertex="1">
                    <mxGeometry x="120" y="927" width="160" height="70" as="geometry"/>
                </mxCell>
                <mxCell id="114" style="edgeStyle=none;html=1;fontSize=18;" parent="126" source="100" target="112" edge="1">
                    <mxGeometry relative="1" as="geometry"/>
                </mxCell>
                <mxCell id="125" style="edgeStyle=none;html=1;entryX=0.5;entryY=1;entryDx=0;entryDy=0;entryPerimeter=0;fontSize=18;fontColor=#FFFFFF;" parent="126" source="120" target="100" edge="1">
                    <mxGeometry relative="1" as="geometry"/>
                </mxCell>
                <mxCell id="120" value="&lt;font style=&quot;font-size: 18px;&quot; color=&quot;#ffffff&quot;&gt;&lt;span style=&quot;&quot;&gt;A&lt;/span&gt;&lt;sub style=&quot;&quot;&gt;i,curr_i = 0&lt;/sub&gt;&lt;/font&gt;" style="rounded=1;whiteSpace=wrap;html=1;absoluteArcSize=1;arcSize=14;strokeWidth=2;labelBackgroundColor=none;fontSize=24;fontColor=#FF3333;" parent="126" vertex="1">
                    <mxGeometry x="120" y="727" width="160" height="53" as="geometry"/>
                </mxCell>
                <mxCell id="121" style="edgeStyle=none;html=1;entryX=0.5;entryY=0;entryDx=0;entryDy=0;fontSize=18;fontColor=#FFFFFF;" parent="126" source="103" target="120" edge="1">
                    <mxGeometry relative="1" as="geometry"/>
                </mxCell>
                <mxCell id="132" value="" style="group" vertex="1" connectable="0" parent="1">
                    <mxGeometry x="360" y="230" width="470" height="760" as="geometry"/>
                </mxCell>
                <mxCell id="131" value="&lt;font color=&quot;#00cc66&quot; style=&quot;font-size: 24px;&quot;&gt;ForwardMove&lt;/font&gt;" style="rounded=1;whiteSpace=wrap;html=1;absoluteArcSize=1;arcSize=14;strokeWidth=2;fontSize=16;labelPosition=center;verticalLabelPosition=top;align=center;verticalAlign=bottom;" vertex="1" parent="132">
                    <mxGeometry width="470" height="760" as="geometry"/>
                </mxCell>
                <mxCell id="10" style="edgeStyle=none;rounded=0;html=1;entryX=0.5;entryY=0;entryDx=0;entryDy=0;fontSize=24;" parent="132" source="7" edge="1">
                    <mxGeometry relative="1" as="geometry">
                        <mxPoint x="241.87" y="130" as="targetPoint"/>
                    </mxGeometry>
                </mxCell>
                <mxCell id="7" value="start" style="strokeWidth=2;html=1;shape=mxgraph.flowchart.terminator;whiteSpace=wrap;fontSize=24;" parent="132" vertex="1">
                    <mxGeometry x="175.62" y="20" width="132.5" height="60" as="geometry"/>
                </mxCell>
                <mxCell id="11" value="&lt;font size=&quot;3&quot;&gt;Loop i on columns&lt;br&gt;from 0 to n-1&lt;br&gt;&lt;/font&gt;" style="strokeWidth=2;html=1;shape=mxgraph.flowchart.loop_limit;whiteSpace=wrap;" parent="132" vertex="1">
                    <mxGeometry x="167.19" y="230" width="150" height="80" as="geometry"/>
                </mxCell>
                <mxCell id="12" value="permuteRows(i, findMainRow(A, i))&lt;br&gt;A&lt;sub&gt;i&lt;/sub&gt;&amp;nbsp;= normalizeRow(A&lt;sub&gt;i&lt;/sub&gt;,i, n)&lt;br&gt;A&amp;nbsp;= excludeColumn(A, A&lt;sub&gt;i&lt;/sub&gt;&amp;nbsp;,i)" style="rounded=1;whiteSpace=wrap;html=1;absoluteArcSize=1;arcSize=14;strokeWidth=2;fontSize=18;align=left;spacingLeft=5;" parent="132" vertex="1">
                    <mxGeometry x="69.99000000000001" y="340" width="343.75" height="160" as="geometry"/>
                </mxCell>
                <mxCell id="37" style="edgeStyle=none;html=1;entryX=0.5;entryY=0;entryDx=0;entryDy=0;fontSize=18;" parent="132" source="11" target="12" edge="1">
                    <mxGeometry relative="1" as="geometry"/>
                </mxCell>
                <mxCell id="20" style="edgeStyle=none;html=1;fontSize=18;" parent="132" source="13" target="11" edge="1">
                    <mxGeometry relative="1" as="geometry"/>
                </mxCell>
                <mxCell id="13" value="&lt;span style=&quot;font-size: 24px;&quot;&gt;A, b, n&lt;/span&gt;" style="shape=parallelogram;html=1;strokeWidth=2;perimeter=parallelogramPerimeter;whiteSpace=wrap;rounded=1;arcSize=12;size=0.23;fontSize=18;" parent="132" vertex="1">
                    <mxGeometry x="151.87" y="130" width="180" height="60" as="geometry"/>
                </mxCell>
                <mxCell id="128" value="&lt;font size=&quot;3&quot;&gt;Loop i end&lt;br&gt;&lt;/font&gt;" style="strokeWidth=2;html=1;shape=mxgraph.flowchart.loop_limit;whiteSpace=wrap;direction=west;" parent="132" vertex="1">
                    <mxGeometry x="167.19" y="540" width="150" height="80" as="geometry"/>
                </mxCell>
                <mxCell id="95" style="edgeStyle=none;html=1;entryX=0.5;entryY=1;entryDx=0;entryDy=0;fontSize=18;entryPerimeter=0;" parent="132" source="12" target="128" edge="1">
                    <mxGeometry relative="1" as="geometry">
                        <mxPoint x="244.3800000000001" y="540" as="targetPoint"/>
                    </mxGeometry>
                </mxCell>
                <mxCell id="129" value="&lt;font style=&quot;font-size: 16px;&quot;&gt;Return A&lt;/font&gt;" style="strokeWidth=2;html=1;shape=mxgraph.flowchart.terminator;whiteSpace=wrap;" vertex="1" parent="132">
                    <mxGeometry x="169.38" y="660" width="147.81" height="80" as="geometry"/>
                </mxCell>
                <mxCell id="130" style="edgeStyle=none;html=1;entryX=0.5;entryY=0;entryDx=0;entryDy=0;entryPerimeter=0;fontSize=16;" edge="1" parent="132" source="128" target="129">
                    <mxGeometry relative="1" as="geometry"/>
                </mxCell>
                <mxCell id="164" value="" style="group" vertex="1" connectable="0" parent="1">
                    <mxGeometry x="1870" y="-970" width="390" height="980" as="geometry"/>
                </mxCell>
                <mxCell id="163" value="&lt;font color=&quot;#ff3333&quot; style=&quot;font-size: 24px;&quot;&gt;findX&lt;/font&gt;" style="rounded=1;whiteSpace=wrap;html=1;absoluteArcSize=1;arcSize=14;strokeWidth=2;fontSize=16;fontColor=#FFFFFF;labelPosition=center;verticalLabelPosition=top;align=center;verticalAlign=bottom;" vertex="1" parent="164">
                    <mxGeometry width="390" height="980" as="geometry"/>
                </mxCell>
                <mxCell id="145" value="start" style="strokeWidth=2;html=1;shape=mxgraph.flowchart.terminator;whiteSpace=wrap;fontSize=24;" vertex="1" parent="164">
                    <mxGeometry x="130" y="20" width="132.5" height="60" as="geometry"/>
                </mxCell>
                <mxCell id="146" value="row, vector, vectorLn" style="shape=parallelogram;html=1;strokeWidth=2;perimeter=parallelogramPerimeter;whiteSpace=wrap;rounded=1;arcSize=12;size=0.23;fontSize=16;fontColor=#FFFFFF;" vertex="1" parent="164">
                    <mxGeometry x="86.25" y="120" width="220" height="60" as="geometry"/>
                </mxCell>
                <mxCell id="147" style="edgeStyle=none;html=1;entryX=0.5;entryY=0;entryDx=0;entryDy=0;fontSize=16;fontColor=#FFFFFF;" edge="1" parent="164" source="145" target="146">
                    <mxGeometry relative="1" as="geometry"/>
                </mxCell>
                <mxCell id="148" value="result = row&lt;sub&gt;row.length-1&lt;/sub&gt;" style="rounded=1;whiteSpace=wrap;html=1;absoluteArcSize=1;arcSize=14;strokeWidth=2;fontSize=16;fontColor=#FFFFFF;" vertex="1" parent="164">
                    <mxGeometry x="83.75" y="230" width="225" height="100" as="geometry"/>
                </mxCell>
                <mxCell id="149" style="edgeStyle=none;html=1;entryX=0.5;entryY=0;entryDx=0;entryDy=0;fontSize=16;fontColor=#FFFFFF;" edge="1" parent="164" source="146" target="148">
                    <mxGeometry relative="1" as="geometry"/>
                </mxCell>
                <mxCell id="150" value="Loop i&lt;br&gt;from row.length-2 to row.length-vectorLn" style="strokeWidth=2;html=1;shape=mxgraph.flowchart.loop_limit;whiteSpace=wrap;fontSize=16;fontColor=#FFFFFF;" vertex="1" parent="164">
                    <mxGeometry x="41.87000000000012" y="380" width="308.75" height="120" as="geometry"/>
                </mxCell>
                <mxCell id="151" style="edgeStyle=none;html=1;entryX=0.5;entryY=0;entryDx=0;entryDy=0;entryPerimeter=0;fontSize=16;fontColor=#FFFFFF;" edge="1" parent="164" source="148" target="150">
                    <mxGeometry relative="1" as="geometry"/>
                </mxCell>
                <mxCell id="154" value="result += (-row&lt;sub&gt;i&lt;/sub&gt;*vector&lt;sub&gt;i&lt;/sub&gt;)" style="rounded=1;whiteSpace=wrap;html=1;absoluteArcSize=1;arcSize=14;strokeWidth=2;fontSize=16;fontColor=#FFFFFF;" vertex="1" parent="164">
                    <mxGeometry x="38.75" y="550" width="315" height="100" as="geometry"/>
                </mxCell>
                <mxCell id="156" style="edgeStyle=none;html=1;entryX=0.5;entryY=0;entryDx=0;entryDy=0;fontSize=16;fontColor=#FFFFFF;" edge="1" parent="164" source="150" target="154">
                    <mxGeometry relative="1" as="geometry"/>
                </mxCell>
                <mxCell id="157" value="Loop i end" style="strokeWidth=2;html=1;shape=mxgraph.flowchart.loop_limit;whiteSpace=wrap;fontSize=16;fontColor=#FFFFFF;direction=west;" vertex="1" parent="164">
                    <mxGeometry x="38.75000000000023" y="700" width="308.75" height="120" as="geometry"/>
                </mxCell>
                <mxCell id="160" style="edgeStyle=none;html=1;entryX=0.478;entryY=1;entryDx=0;entryDy=0;entryPerimeter=0;fontSize=16;fontColor=#FFFFFF;" edge="1" parent="164" source="154" target="157">
                    <mxGeometry relative="1" as="geometry"/>
                </mxCell>
                <mxCell id="161" value="return result" style="strokeWidth=2;html=1;shape=mxgraph.flowchart.terminator;whiteSpace=wrap;fontSize=18;" vertex="1" parent="164">
                    <mxGeometry x="103.13000000000011" y="870" width="180" height="80" as="geometry"/>
                </mxCell>
                <mxCell id="162" style="edgeStyle=none;html=1;entryX=0.5;entryY=0;entryDx=0;entryDy=0;entryPerimeter=0;fontSize=16;fontColor=#FFFFFF;" edge="1" parent="164" source="157" target="161">
                    <mxGeometry relative="1" as="geometry"/>
                </mxCell>
                <mxCell id="170" value="" style="group" vertex="1" connectable="0" parent="1">
                    <mxGeometry x="940" y="117" width="350" height="870" as="geometry"/>
                </mxCell>
                <mxCell id="169" value="&lt;font color=&quot;#00cc66&quot;&gt;BackwardMove&lt;/font&gt;" style="rounded=1;whiteSpace=wrap;html=1;absoluteArcSize=1;arcSize=14;strokeWidth=2;fontSize=24;fontColor=#FF3333;labelPosition=center;verticalLabelPosition=top;align=center;verticalAlign=bottom;" vertex="1" parent="170">
                    <mxGeometry width="350" height="870" as="geometry"/>
                </mxCell>
                <mxCell id="133" value="start" style="strokeWidth=2;html=1;shape=mxgraph.flowchart.terminator;whiteSpace=wrap;fontSize=24;" vertex="1" parent="170">
                    <mxGeometry x="110" y="20" width="132.5" height="60" as="geometry"/>
                </mxCell>
                <mxCell id="134" value="&lt;span style=&quot;font-size: 24px;&quot;&gt;A&lt;/span&gt;" style="shape=parallelogram;html=1;strokeWidth=2;perimeter=parallelogramPerimeter;whiteSpace=wrap;rounded=1;arcSize=12;size=0.23;fontSize=18;" vertex="1" parent="170">
                    <mxGeometry x="86.25" y="120" width="180" height="60" as="geometry"/>
                </mxCell>
                <mxCell id="136" style="edgeStyle=none;html=1;entryX=0.5;entryY=0;entryDx=0;entryDy=0;fontSize=24;fontColor=#00CC66;" edge="1" parent="170" source="133" target="134">
                    <mxGeometry relative="1" as="geometry"/>
                </mxCell>
                <mxCell id="137" value="&lt;font color=&quot;#ffffff&quot;&gt;&lt;span style=&quot;font-size: 16px;&quot;&gt;vector = {}&lt;/span&gt;&lt;/font&gt;" style="rounded=1;whiteSpace=wrap;html=1;absoluteArcSize=1;arcSize=14;strokeWidth=2;fontSize=24;fontColor=#00CC66;" vertex="1" parent="170">
                    <mxGeometry x="76.25" y="220" width="200" height="80" as="geometry"/>
                </mxCell>
                <mxCell id="140" style="edgeStyle=none;html=1;entryX=0.5;entryY=0;entryDx=0;entryDy=0;fontSize=16;fontColor=#FFFFFF;" edge="1" parent="170" source="134" target="137">
                    <mxGeometry relative="1" as="geometry"/>
                </mxCell>
                <mxCell id="141" value="Loop i on rows&lt;br&gt;from n to 0" style="strokeWidth=2;html=1;shape=mxgraph.flowchart.loop_limit;whiteSpace=wrap;fontSize=16;fontColor=#FFFFFF;" vertex="1" parent="170">
                    <mxGeometry x="66.25" y="340" width="220" height="90" as="geometry"/>
                </mxCell>
                <mxCell id="142" style="edgeStyle=none;html=1;fontSize=16;fontColor=#FFFFFF;" edge="1" parent="170" source="137" target="141">
                    <mxGeometry relative="1" as="geometry"/>
                </mxCell>
                <mxCell id="143" value="resultVector&lt;sub&gt;i&lt;/sub&gt;&amp;nbsp;= findX(A&lt;sub&gt;i&lt;/sub&gt;, vector, vector.length-i)" style="rounded=1;whiteSpace=wrap;html=1;absoluteArcSize=1;arcSize=14;strokeWidth=2;fontSize=16;fontColor=#FFFFFF;" vertex="1" parent="170">
                    <mxGeometry x="31.25" y="480" width="290" height="100" as="geometry"/>
                </mxCell>
                <mxCell id="144" style="edgeStyle=none;html=1;entryX=0.5;entryY=0;entryDx=0;entryDy=0;fontSize=16;fontColor=#FFFFFF;" edge="1" parent="170" source="141" target="143">
                    <mxGeometry relative="1" as="geometry"/>
                </mxCell>
                <mxCell id="165" value="Loop i end" style="strokeWidth=2;html=1;shape=mxgraph.flowchart.loop_limit;whiteSpace=wrap;fontSize=16;fontColor=#FFFFFF;direction=west;" vertex="1" parent="170">
                    <mxGeometry x="66.25" y="620" width="220" height="90" as="geometry"/>
                </mxCell>
                <mxCell id="166" style="edgeStyle=none;html=1;entryX=0.5;entryY=1;entryDx=0;entryDy=0;entryPerimeter=0;fontSize=24;fontColor=#FF3333;" edge="1" parent="170" source="143" target="165">
                    <mxGeometry relative="1" as="geometry"/>
                </mxCell>
                <mxCell id="167" value="&lt;font style=&quot;font-size: 16px;&quot;&gt;Return vector&lt;/font&gt;" style="strokeWidth=2;html=1;shape=mxgraph.flowchart.terminator;whiteSpace=wrap;" vertex="1" parent="170">
                    <mxGeometry x="102.34000000000003" y="760" width="147.81" height="80" as="geometry"/>
                </mxCell>
                <mxCell id="168" style="edgeStyle=none;html=1;entryX=0.5;entryY=0;entryDx=0;entryDy=0;entryPerimeter=0;fontSize=24;fontColor=#FF3333;" edge="1" parent="170" source="165" target="167">
                    <mxGeometry relative="1" as="geometry"/>
                </mxCell>
            </root>
        </mxGraphModel>
    </diagram>
</mxfile>